<svg width="20" height="23" viewBox="0 0 20 23" xmlns="http://www.w3.org/2000/svg">
<path d="M18.4024 10.9205C16.5508 6.43506 13.752 4.17773 10 4.17773C6.2461 4.17773 3.44923 6.43506 1.59766 10.9228C1.5234 11.1036 1.48488 11.3011 1.48488 11.5011C1.48488 11.7011 1.5234 11.8986 1.59766 12.0795C3.44923 16.5649 6.24805 18.8223 10 18.8223C13.7539 18.8223 16.5508 16.5649 18.4024 12.0772C18.5527 11.7134 18.5527 11.2911 18.4024 10.9205ZM10 17.2051C6.84962 17.2051 4.54298 15.3678 2.91602 11.5C4.54298 7.63223 6.84962 5.79492 10 5.79492C13.1504 5.79492 15.457 7.63223 17.084 11.5C15.459 15.3678 13.1524 17.2051 10 17.2051ZM9.92188 7.54688C8.02345 7.54688 6.48438 9.3168 6.48438 11.5C6.48438 13.6832 8.02345 15.4531 9.92188 15.4531C11.8203 15.4531 13.3594 13.6832 13.3594 11.5C13.3594 9.3168 11.8203 7.54688 9.92188 7.54688ZM9.92188 14.0156C8.7129 14.0156 7.73438 12.8903 7.73438 11.5C7.73438 10.1097 8.7129 8.98438 9.92188 8.98438C11.1309 8.98438 12.1094 10.1097 12.1094 11.5C12.1094 12.8903 11.1309 14.0156 9.92188 14.0156Z" />
</svg>
